<mxfile host="app.diagrams.net" modified="2023-03-08T05:49:38.285Z" agent="5.0 (Macintosh; Intel Mac OS X 10_15_7) AppleWebKit/537.36 (KHTML, like Gecko) Chrome/110.0.0.0 Safari/537.36" etag="OK6HUEDjYiVNh0633VUu" version="21.0.2" type="github">
  <diagram id="R2lEEEUBdFMjLlhIrx00" name="Page-1">
    <mxGraphModel dx="1193" dy="770" grid="1" gridSize="10" guides="1" tooltips="1" connect="1" arrows="1" fold="1" page="1" pageScale="1" pageWidth="850" pageHeight="1100" math="0" shadow="0" extFonts="Permanent Marker^https://fonts.googleapis.com/css?family=Permanent+Marker">
      <root>
        <mxCell id="0" />
        <mxCell id="1" parent="0" />
        <mxCell id="SHpA7wh9NQkPlfdL5Q3B-199" value="users" style="shape=table;startSize=30;container=1;collapsible=1;childLayout=tableLayout;fixedRows=1;rowLines=0;fontStyle=1;align=center;resizeLast=1;html=1;" vertex="1" parent="1">
          <mxGeometry x="103" y="152" width="187" height="349" as="geometry" />
        </mxCell>
        <mxCell id="SHpA7wh9NQkPlfdL5Q3B-200" value="" style="shape=tableRow;horizontal=0;startSize=0;swimlaneHead=0;swimlaneBody=0;fillColor=none;collapsible=0;dropTarget=0;points=[[0,0.5],[1,0.5]];portConstraint=eastwest;top=0;left=0;right=0;bottom=1;" vertex="1" parent="SHpA7wh9NQkPlfdL5Q3B-199">
          <mxGeometry y="30" width="187" height="30" as="geometry" />
        </mxCell>
        <mxCell id="SHpA7wh9NQkPlfdL5Q3B-201" value="column" style="shape=partialRectangle;connectable=0;fillColor=none;top=0;left=0;bottom=0;right=0;fontStyle=1;overflow=hidden;whiteSpace=wrap;html=1;" vertex="1" parent="SHpA7wh9NQkPlfdL5Q3B-200">
          <mxGeometry width="130" height="30" as="geometry">
            <mxRectangle width="130" height="30" as="alternateBounds" />
          </mxGeometry>
        </mxCell>
        <mxCell id="SHpA7wh9NQkPlfdL5Q3B-202" value="type" style="shape=partialRectangle;connectable=0;fillColor=none;top=0;left=0;bottom=0;right=0;align=left;spacingLeft=6;fontStyle=5;overflow=hidden;whiteSpace=wrap;html=1;" vertex="1" parent="SHpA7wh9NQkPlfdL5Q3B-200">
          <mxGeometry x="130" width="57" height="30" as="geometry">
            <mxRectangle width="57" height="30" as="alternateBounds" />
          </mxGeometry>
        </mxCell>
        <mxCell id="SHpA7wh9NQkPlfdL5Q3B-203" value="" style="shape=tableRow;horizontal=0;startSize=0;swimlaneHead=0;swimlaneBody=0;fillColor=none;collapsible=0;dropTarget=0;points=[[0,0.5],[1,0.5]];portConstraint=eastwest;top=0;left=0;right=0;bottom=0;" vertex="1" parent="SHpA7wh9NQkPlfdL5Q3B-199">
          <mxGeometry y="60" width="187" height="30" as="geometry" />
        </mxCell>
        <mxCell id="SHpA7wh9NQkPlfdL5Q3B-204" value="id" style="shape=partialRectangle;connectable=0;fillColor=none;top=0;left=0;bottom=0;right=0;editable=1;overflow=hidden;whiteSpace=wrap;html=1;" vertex="1" parent="SHpA7wh9NQkPlfdL5Q3B-203">
          <mxGeometry width="130" height="30" as="geometry">
            <mxRectangle width="130" height="30" as="alternateBounds" />
          </mxGeometry>
        </mxCell>
        <mxCell id="SHpA7wh9NQkPlfdL5Q3B-205" value="num" style="shape=partialRectangle;connectable=0;fillColor=none;top=0;left=0;bottom=0;right=0;align=left;spacingLeft=6;overflow=hidden;whiteSpace=wrap;html=1;" vertex="1" parent="SHpA7wh9NQkPlfdL5Q3B-203">
          <mxGeometry x="130" width="57" height="30" as="geometry">
            <mxRectangle width="57" height="30" as="alternateBounds" />
          </mxGeometry>
        </mxCell>
        <mxCell id="SHpA7wh9NQkPlfdL5Q3B-206" value="" style="shape=tableRow;horizontal=0;startSize=0;swimlaneHead=0;swimlaneBody=0;fillColor=none;collapsible=0;dropTarget=0;points=[[0,0.5],[1,0.5]];portConstraint=eastwest;top=0;left=0;right=0;bottom=0;" vertex="1" parent="SHpA7wh9NQkPlfdL5Q3B-199">
          <mxGeometry y="90" width="187" height="30" as="geometry" />
        </mxCell>
        <mxCell id="SHpA7wh9NQkPlfdL5Q3B-207" value="name" style="shape=partialRectangle;connectable=0;fillColor=none;top=0;left=0;bottom=0;right=0;editable=1;overflow=hidden;whiteSpace=wrap;html=1;" vertex="1" parent="SHpA7wh9NQkPlfdL5Q3B-206">
          <mxGeometry width="130" height="30" as="geometry">
            <mxRectangle width="130" height="30" as="alternateBounds" />
          </mxGeometry>
        </mxCell>
        <mxCell id="SHpA7wh9NQkPlfdL5Q3B-208" value="string" style="shape=partialRectangle;connectable=0;fillColor=none;top=0;left=0;bottom=0;right=0;align=left;spacingLeft=6;overflow=hidden;whiteSpace=wrap;html=1;" vertex="1" parent="SHpA7wh9NQkPlfdL5Q3B-206">
          <mxGeometry x="130" width="57" height="30" as="geometry">
            <mxRectangle width="57" height="30" as="alternateBounds" />
          </mxGeometry>
        </mxCell>
        <mxCell id="SHpA7wh9NQkPlfdL5Q3B-209" value="" style="shape=tableRow;horizontal=0;startSize=0;swimlaneHead=0;swimlaneBody=0;fillColor=none;collapsible=0;dropTarget=0;points=[[0,0.5],[1,0.5]];portConstraint=eastwest;top=0;left=0;right=0;bottom=0;" vertex="1" parent="SHpA7wh9NQkPlfdL5Q3B-199">
          <mxGeometry y="120" width="187" height="30" as="geometry" />
        </mxCell>
        <mxCell id="SHpA7wh9NQkPlfdL5Q3B-210" value="name_kana" style="shape=partialRectangle;connectable=0;fillColor=none;top=0;left=0;bottom=0;right=0;editable=1;overflow=hidden;whiteSpace=wrap;html=1;" vertex="1" parent="SHpA7wh9NQkPlfdL5Q3B-209">
          <mxGeometry width="130" height="30" as="geometry">
            <mxRectangle width="130" height="30" as="alternateBounds" />
          </mxGeometry>
        </mxCell>
        <mxCell id="SHpA7wh9NQkPlfdL5Q3B-211" value="string" style="shape=partialRectangle;connectable=0;fillColor=none;top=0;left=0;bottom=0;right=0;align=left;spacingLeft=6;overflow=hidden;whiteSpace=wrap;html=1;" vertex="1" parent="SHpA7wh9NQkPlfdL5Q3B-209">
          <mxGeometry x="130" width="57" height="30" as="geometry">
            <mxRectangle width="57" height="30" as="alternateBounds" />
          </mxGeometry>
        </mxCell>
        <mxCell id="SHpA7wh9NQkPlfdL5Q3B-229" value="" style="shape=tableRow;horizontal=0;startSize=0;swimlaneHead=0;swimlaneBody=0;fillColor=none;collapsible=0;dropTarget=0;points=[[0,0.5],[1,0.5]];portConstraint=eastwest;top=0;left=0;right=0;bottom=0;" vertex="1" parent="SHpA7wh9NQkPlfdL5Q3B-199">
          <mxGeometry y="150" width="187" height="30" as="geometry" />
        </mxCell>
        <mxCell id="SHpA7wh9NQkPlfdL5Q3B-230" value="email" style="shape=partialRectangle;connectable=0;fillColor=none;top=0;left=0;bottom=0;right=0;editable=1;overflow=hidden;whiteSpace=wrap;html=1;" vertex="1" parent="SHpA7wh9NQkPlfdL5Q3B-229">
          <mxGeometry width="130" height="30" as="geometry">
            <mxRectangle width="130" height="30" as="alternateBounds" />
          </mxGeometry>
        </mxCell>
        <mxCell id="SHpA7wh9NQkPlfdL5Q3B-231" value="string" style="shape=partialRectangle;connectable=0;fillColor=none;top=0;left=0;bottom=0;right=0;align=left;spacingLeft=6;overflow=hidden;whiteSpace=wrap;html=1;" vertex="1" parent="SHpA7wh9NQkPlfdL5Q3B-229">
          <mxGeometry x="130" width="57" height="30" as="geometry">
            <mxRectangle width="57" height="30" as="alternateBounds" />
          </mxGeometry>
        </mxCell>
        <mxCell id="SHpA7wh9NQkPlfdL5Q3B-248" value="" style="shape=tableRow;horizontal=0;startSize=0;swimlaneHead=0;swimlaneBody=0;fillColor=none;collapsible=0;dropTarget=0;points=[[0,0.5],[1,0.5]];portConstraint=eastwest;top=0;left=0;right=0;bottom=0;" vertex="1" parent="SHpA7wh9NQkPlfdL5Q3B-199">
          <mxGeometry y="180" width="187" height="28" as="geometry" />
        </mxCell>
        <mxCell id="SHpA7wh9NQkPlfdL5Q3B-249" value="phone" style="shape=partialRectangle;connectable=0;fillColor=none;top=0;left=0;bottom=0;right=0;editable=1;overflow=hidden;whiteSpace=wrap;html=1;" vertex="1" parent="SHpA7wh9NQkPlfdL5Q3B-248">
          <mxGeometry width="130" height="28" as="geometry">
            <mxRectangle width="130" height="28" as="alternateBounds" />
          </mxGeometry>
        </mxCell>
        <mxCell id="SHpA7wh9NQkPlfdL5Q3B-250" value="string" style="shape=partialRectangle;connectable=0;fillColor=none;top=0;left=0;bottom=0;right=0;align=left;spacingLeft=6;overflow=hidden;whiteSpace=wrap;html=1;" vertex="1" parent="SHpA7wh9NQkPlfdL5Q3B-248">
          <mxGeometry x="130" width="57" height="28" as="geometry">
            <mxRectangle width="57" height="28" as="alternateBounds" />
          </mxGeometry>
        </mxCell>
        <mxCell id="SHpA7wh9NQkPlfdL5Q3B-251" value="" style="shape=tableRow;horizontal=0;startSize=0;swimlaneHead=0;swimlaneBody=0;fillColor=none;collapsible=0;dropTarget=0;points=[[0,0.5],[1,0.5]];portConstraint=eastwest;top=0;left=0;right=0;bottom=0;" vertex="1" parent="SHpA7wh9NQkPlfdL5Q3B-199">
          <mxGeometry y="208" width="187" height="30" as="geometry" />
        </mxCell>
        <mxCell id="SHpA7wh9NQkPlfdL5Q3B-252" value="birthday" style="shape=partialRectangle;connectable=0;fillColor=none;top=0;left=0;bottom=0;right=0;editable=1;overflow=hidden;whiteSpace=wrap;html=1;" vertex="1" parent="SHpA7wh9NQkPlfdL5Q3B-251">
          <mxGeometry width="130" height="30" as="geometry">
            <mxRectangle width="130" height="30" as="alternateBounds" />
          </mxGeometry>
        </mxCell>
        <mxCell id="SHpA7wh9NQkPlfdL5Q3B-253" value="string" style="shape=partialRectangle;connectable=0;fillColor=none;top=0;left=0;bottom=0;right=0;align=left;spacingLeft=6;overflow=hidden;whiteSpace=wrap;html=1;" vertex="1" parent="SHpA7wh9NQkPlfdL5Q3B-251">
          <mxGeometry x="130" width="57" height="30" as="geometry">
            <mxRectangle width="57" height="30" as="alternateBounds" />
          </mxGeometry>
        </mxCell>
        <mxCell id="SHpA7wh9NQkPlfdL5Q3B-254" value="" style="shape=tableRow;horizontal=0;startSize=0;swimlaneHead=0;swimlaneBody=0;fillColor=none;collapsible=0;dropTarget=0;points=[[0,0.5],[1,0.5]];portConstraint=eastwest;top=0;left=0;right=0;bottom=0;" vertex="1" parent="SHpA7wh9NQkPlfdL5Q3B-199">
          <mxGeometry y="238" width="187" height="30" as="geometry" />
        </mxCell>
        <mxCell id="SHpA7wh9NQkPlfdL5Q3B-255" value="prefecture_id" style="shape=partialRectangle;connectable=0;fillColor=none;top=0;left=0;bottom=0;right=0;editable=1;overflow=hidden;whiteSpace=wrap;html=1;" vertex="1" parent="SHpA7wh9NQkPlfdL5Q3B-254">
          <mxGeometry width="130" height="30" as="geometry">
            <mxRectangle width="130" height="30" as="alternateBounds" />
          </mxGeometry>
        </mxCell>
        <mxCell id="SHpA7wh9NQkPlfdL5Q3B-256" value="num" style="shape=partialRectangle;connectable=0;fillColor=none;top=0;left=0;bottom=0;right=0;align=left;spacingLeft=6;overflow=hidden;whiteSpace=wrap;html=1;" vertex="1" parent="SHpA7wh9NQkPlfdL5Q3B-254">
          <mxGeometry x="130" width="57" height="30" as="geometry">
            <mxRectangle width="57" height="30" as="alternateBounds" />
          </mxGeometry>
        </mxCell>
        <mxCell id="SHpA7wh9NQkPlfdL5Q3B-257" value="" style="shape=tableRow;horizontal=0;startSize=0;swimlaneHead=0;swimlaneBody=0;fillColor=none;collapsible=0;dropTarget=0;points=[[0,0.5],[1,0.5]];portConstraint=eastwest;top=0;left=0;right=0;bottom=0;" vertex="1" parent="SHpA7wh9NQkPlfdL5Q3B-199">
          <mxGeometry y="268" width="187" height="30" as="geometry" />
        </mxCell>
        <mxCell id="SHpA7wh9NQkPlfdL5Q3B-258" value="job_id" style="shape=partialRectangle;connectable=0;fillColor=none;top=0;left=0;bottom=0;right=0;editable=1;overflow=hidden;whiteSpace=wrap;html=1;" vertex="1" parent="SHpA7wh9NQkPlfdL5Q3B-257">
          <mxGeometry width="130" height="30" as="geometry">
            <mxRectangle width="130" height="30" as="alternateBounds" />
          </mxGeometry>
        </mxCell>
        <mxCell id="SHpA7wh9NQkPlfdL5Q3B-259" value="num" style="shape=partialRectangle;connectable=0;fillColor=none;top=0;left=0;bottom=0;right=0;align=left;spacingLeft=6;overflow=hidden;whiteSpace=wrap;html=1;" vertex="1" parent="SHpA7wh9NQkPlfdL5Q3B-257">
          <mxGeometry x="130" width="57" height="30" as="geometry">
            <mxRectangle width="57" height="30" as="alternateBounds" />
          </mxGeometry>
        </mxCell>
        <mxCell id="SHpA7wh9NQkPlfdL5Q3B-260" value="" style="shape=tableRow;horizontal=0;startSize=0;swimlaneHead=0;swimlaneBody=0;fillColor=none;collapsible=0;dropTarget=0;points=[[0,0.5],[1,0.5]];portConstraint=eastwest;top=0;left=0;right=0;bottom=0;" vertex="1" parent="SHpA7wh9NQkPlfdL5Q3B-199">
          <mxGeometry y="298" width="187" height="30" as="geometry" />
        </mxCell>
        <mxCell id="SHpA7wh9NQkPlfdL5Q3B-261" value="status" style="shape=partialRectangle;connectable=0;fillColor=none;top=0;left=0;bottom=0;right=0;editable=1;overflow=hidden;whiteSpace=wrap;html=1;" vertex="1" parent="SHpA7wh9NQkPlfdL5Q3B-260">
          <mxGeometry width="130" height="30" as="geometry">
            <mxRectangle width="130" height="30" as="alternateBounds" />
          </mxGeometry>
        </mxCell>
        <mxCell id="SHpA7wh9NQkPlfdL5Q3B-262" value="boolean" style="shape=partialRectangle;connectable=0;fillColor=none;top=0;left=0;bottom=0;right=0;align=left;spacingLeft=6;overflow=hidden;whiteSpace=wrap;html=1;" vertex="1" parent="SHpA7wh9NQkPlfdL5Q3B-260">
          <mxGeometry x="130" width="57" height="30" as="geometry">
            <mxRectangle width="57" height="30" as="alternateBounds" />
          </mxGeometry>
        </mxCell>
        <mxCell id="SHpA7wh9NQkPlfdL5Q3B-263" value="" style="shape=tableRow;horizontal=0;startSize=0;swimlaneHead=0;swimlaneBody=0;fillColor=none;collapsible=0;dropTarget=0;points=[[0,0.5],[1,0.5]];portConstraint=eastwest;top=0;left=0;right=0;bottom=0;" vertex="1" parent="SHpA7wh9NQkPlfdL5Q3B-199">
          <mxGeometry y="328" width="187" height="20" as="geometry" />
        </mxCell>
        <mxCell id="SHpA7wh9NQkPlfdL5Q3B-264" value="" style="shape=partialRectangle;connectable=0;fillColor=none;top=0;left=0;bottom=0;right=0;editable=1;overflow=hidden;whiteSpace=wrap;html=1;" vertex="1" parent="SHpA7wh9NQkPlfdL5Q3B-263">
          <mxGeometry width="130" height="20" as="geometry">
            <mxRectangle width="130" height="20" as="alternateBounds" />
          </mxGeometry>
        </mxCell>
        <mxCell id="SHpA7wh9NQkPlfdL5Q3B-265" value="" style="shape=partialRectangle;connectable=0;fillColor=none;top=0;left=0;bottom=0;right=0;align=left;spacingLeft=6;overflow=hidden;whiteSpace=wrap;html=1;" vertex="1" parent="SHpA7wh9NQkPlfdL5Q3B-263">
          <mxGeometry x="130" width="57" height="20" as="geometry">
            <mxRectangle width="57" height="20" as="alternateBounds" />
          </mxGeometry>
        </mxCell>
        <mxCell id="SHpA7wh9NQkPlfdL5Q3B-301" value="prefectures" style="shape=table;startSize=30;container=1;collapsible=1;childLayout=tableLayout;fixedRows=1;rowLines=0;fontStyle=1;align=center;resizeLast=1;html=1;" vertex="1" parent="1">
          <mxGeometry x="410" y="152" width="180" height="140" as="geometry" />
        </mxCell>
        <mxCell id="SHpA7wh9NQkPlfdL5Q3B-302" value="" style="shape=tableRow;horizontal=0;startSize=0;swimlaneHead=0;swimlaneBody=0;fillColor=none;collapsible=0;dropTarget=0;points=[[0,0.5],[1,0.5]];portConstraint=eastwest;top=0;left=0;right=0;bottom=1;" vertex="1" parent="SHpA7wh9NQkPlfdL5Q3B-301">
          <mxGeometry y="30" width="180" height="30" as="geometry" />
        </mxCell>
        <mxCell id="SHpA7wh9NQkPlfdL5Q3B-303" value="column" style="shape=partialRectangle;connectable=0;fillColor=none;top=0;left=0;bottom=0;right=0;fontStyle=1;overflow=hidden;whiteSpace=wrap;html=1;" vertex="1" parent="SHpA7wh9NQkPlfdL5Q3B-302">
          <mxGeometry width="120" height="30" as="geometry">
            <mxRectangle width="120" height="30" as="alternateBounds" />
          </mxGeometry>
        </mxCell>
        <mxCell id="SHpA7wh9NQkPlfdL5Q3B-304" value="type" style="shape=partialRectangle;connectable=0;fillColor=none;top=0;left=0;bottom=0;right=0;align=left;spacingLeft=6;fontStyle=5;overflow=hidden;whiteSpace=wrap;html=1;" vertex="1" parent="SHpA7wh9NQkPlfdL5Q3B-302">
          <mxGeometry x="120" width="60" height="30" as="geometry">
            <mxRectangle width="60" height="30" as="alternateBounds" />
          </mxGeometry>
        </mxCell>
        <mxCell id="SHpA7wh9NQkPlfdL5Q3B-305" value="" style="shape=tableRow;horizontal=0;startSize=0;swimlaneHead=0;swimlaneBody=0;fillColor=none;collapsible=0;dropTarget=0;points=[[0,0.5],[1,0.5]];portConstraint=eastwest;top=0;left=0;right=0;bottom=0;" vertex="1" parent="SHpA7wh9NQkPlfdL5Q3B-301">
          <mxGeometry y="60" width="180" height="30" as="geometry" />
        </mxCell>
        <mxCell id="SHpA7wh9NQkPlfdL5Q3B-306" value="id" style="shape=partialRectangle;connectable=0;fillColor=none;top=0;left=0;bottom=0;right=0;editable=1;overflow=hidden;whiteSpace=wrap;html=1;" vertex="1" parent="SHpA7wh9NQkPlfdL5Q3B-305">
          <mxGeometry width="120" height="30" as="geometry">
            <mxRectangle width="120" height="30" as="alternateBounds" />
          </mxGeometry>
        </mxCell>
        <mxCell id="SHpA7wh9NQkPlfdL5Q3B-307" value="num" style="shape=partialRectangle;connectable=0;fillColor=none;top=0;left=0;bottom=0;right=0;align=left;spacingLeft=6;overflow=hidden;whiteSpace=wrap;html=1;" vertex="1" parent="SHpA7wh9NQkPlfdL5Q3B-305">
          <mxGeometry x="120" width="60" height="30" as="geometry">
            <mxRectangle width="60" height="30" as="alternateBounds" />
          </mxGeometry>
        </mxCell>
        <mxCell id="SHpA7wh9NQkPlfdL5Q3B-308" value="" style="shape=tableRow;horizontal=0;startSize=0;swimlaneHead=0;swimlaneBody=0;fillColor=none;collapsible=0;dropTarget=0;points=[[0,0.5],[1,0.5]];portConstraint=eastwest;top=0;left=0;right=0;bottom=0;" vertex="1" parent="SHpA7wh9NQkPlfdL5Q3B-301">
          <mxGeometry y="90" width="180" height="30" as="geometry" />
        </mxCell>
        <mxCell id="SHpA7wh9NQkPlfdL5Q3B-309" value="name" style="shape=partialRectangle;connectable=0;fillColor=none;top=0;left=0;bottom=0;right=0;editable=1;overflow=hidden;whiteSpace=wrap;html=1;" vertex="1" parent="SHpA7wh9NQkPlfdL5Q3B-308">
          <mxGeometry width="120" height="30" as="geometry">
            <mxRectangle width="120" height="30" as="alternateBounds" />
          </mxGeometry>
        </mxCell>
        <mxCell id="SHpA7wh9NQkPlfdL5Q3B-310" value="string" style="shape=partialRectangle;connectable=0;fillColor=none;top=0;left=0;bottom=0;right=0;align=left;spacingLeft=6;overflow=hidden;whiteSpace=wrap;html=1;" vertex="1" parent="SHpA7wh9NQkPlfdL5Q3B-308">
          <mxGeometry x="120" width="60" height="30" as="geometry">
            <mxRectangle width="60" height="30" as="alternateBounds" />
          </mxGeometry>
        </mxCell>
        <mxCell id="SHpA7wh9NQkPlfdL5Q3B-311" value="" style="shape=tableRow;horizontal=0;startSize=0;swimlaneHead=0;swimlaneBody=0;fillColor=none;collapsible=0;dropTarget=0;points=[[0,0.5],[1,0.5]];portConstraint=eastwest;top=0;left=0;right=0;bottom=0;" vertex="1" parent="SHpA7wh9NQkPlfdL5Q3B-301">
          <mxGeometry y="120" width="180" height="20" as="geometry" />
        </mxCell>
        <mxCell id="SHpA7wh9NQkPlfdL5Q3B-312" value="" style="shape=partialRectangle;connectable=0;fillColor=none;top=0;left=0;bottom=0;right=0;editable=1;overflow=hidden;whiteSpace=wrap;html=1;" vertex="1" parent="SHpA7wh9NQkPlfdL5Q3B-311">
          <mxGeometry width="120" height="20" as="geometry">
            <mxRectangle width="120" height="20" as="alternateBounds" />
          </mxGeometry>
        </mxCell>
        <mxCell id="SHpA7wh9NQkPlfdL5Q3B-313" value="" style="shape=partialRectangle;connectable=0;fillColor=none;top=0;left=0;bottom=0;right=0;align=left;spacingLeft=6;overflow=hidden;whiteSpace=wrap;html=1;" vertex="1" parent="SHpA7wh9NQkPlfdL5Q3B-311">
          <mxGeometry x="120" width="60" height="20" as="geometry">
            <mxRectangle width="60" height="20" as="alternateBounds" />
          </mxGeometry>
        </mxCell>
        <mxCell id="SHpA7wh9NQkPlfdL5Q3B-316" style="edgeStyle=orthogonalEdgeStyle;rounded=0;orthogonalLoop=1;jettySize=auto;html=1;exitX=1;exitY=0.5;exitDx=0;exitDy=0;entryX=0;entryY=0.5;entryDx=0;entryDy=0;" edge="1" parent="1" source="SHpA7wh9NQkPlfdL5Q3B-206" target="SHpA7wh9NQkPlfdL5Q3B-308">
          <mxGeometry relative="1" as="geometry" />
        </mxCell>
        <mxCell id="SHpA7wh9NQkPlfdL5Q3B-317" value="jobs" style="shape=table;startSize=30;container=1;collapsible=1;childLayout=tableLayout;fixedRows=1;rowLines=0;fontStyle=1;align=center;resizeLast=1;html=1;" vertex="1" parent="1">
          <mxGeometry x="410" y="310" width="180" height="140" as="geometry" />
        </mxCell>
        <mxCell id="SHpA7wh9NQkPlfdL5Q3B-318" value="" style="shape=tableRow;horizontal=0;startSize=0;swimlaneHead=0;swimlaneBody=0;fillColor=none;collapsible=0;dropTarget=0;points=[[0,0.5],[1,0.5]];portConstraint=eastwest;top=0;left=0;right=0;bottom=1;" vertex="1" parent="SHpA7wh9NQkPlfdL5Q3B-317">
          <mxGeometry y="30" width="180" height="30" as="geometry" />
        </mxCell>
        <mxCell id="SHpA7wh9NQkPlfdL5Q3B-319" value="column" style="shape=partialRectangle;connectable=0;fillColor=none;top=0;left=0;bottom=0;right=0;fontStyle=1;overflow=hidden;whiteSpace=wrap;html=1;" vertex="1" parent="SHpA7wh9NQkPlfdL5Q3B-318">
          <mxGeometry width="120" height="30" as="geometry">
            <mxRectangle width="120" height="30" as="alternateBounds" />
          </mxGeometry>
        </mxCell>
        <mxCell id="SHpA7wh9NQkPlfdL5Q3B-320" value="type" style="shape=partialRectangle;connectable=0;fillColor=none;top=0;left=0;bottom=0;right=0;align=left;spacingLeft=6;fontStyle=5;overflow=hidden;whiteSpace=wrap;html=1;" vertex="1" parent="SHpA7wh9NQkPlfdL5Q3B-318">
          <mxGeometry x="120" width="60" height="30" as="geometry">
            <mxRectangle width="60" height="30" as="alternateBounds" />
          </mxGeometry>
        </mxCell>
        <mxCell id="SHpA7wh9NQkPlfdL5Q3B-321" value="" style="shape=tableRow;horizontal=0;startSize=0;swimlaneHead=0;swimlaneBody=0;fillColor=none;collapsible=0;dropTarget=0;points=[[0,0.5],[1,0.5]];portConstraint=eastwest;top=0;left=0;right=0;bottom=0;" vertex="1" parent="SHpA7wh9NQkPlfdL5Q3B-317">
          <mxGeometry y="60" width="180" height="30" as="geometry" />
        </mxCell>
        <mxCell id="SHpA7wh9NQkPlfdL5Q3B-322" value="id" style="shape=partialRectangle;connectable=0;fillColor=none;top=0;left=0;bottom=0;right=0;editable=1;overflow=hidden;whiteSpace=wrap;html=1;" vertex="1" parent="SHpA7wh9NQkPlfdL5Q3B-321">
          <mxGeometry width="120" height="30" as="geometry">
            <mxRectangle width="120" height="30" as="alternateBounds" />
          </mxGeometry>
        </mxCell>
        <mxCell id="SHpA7wh9NQkPlfdL5Q3B-323" value="num" style="shape=partialRectangle;connectable=0;fillColor=none;top=0;left=0;bottom=0;right=0;align=left;spacingLeft=6;overflow=hidden;whiteSpace=wrap;html=1;" vertex="1" parent="SHpA7wh9NQkPlfdL5Q3B-321">
          <mxGeometry x="120" width="60" height="30" as="geometry">
            <mxRectangle width="60" height="30" as="alternateBounds" />
          </mxGeometry>
        </mxCell>
        <mxCell id="SHpA7wh9NQkPlfdL5Q3B-324" value="" style="shape=tableRow;horizontal=0;startSize=0;swimlaneHead=0;swimlaneBody=0;fillColor=none;collapsible=0;dropTarget=0;points=[[0,0.5],[1,0.5]];portConstraint=eastwest;top=0;left=0;right=0;bottom=0;" vertex="1" parent="SHpA7wh9NQkPlfdL5Q3B-317">
          <mxGeometry y="90" width="180" height="30" as="geometry" />
        </mxCell>
        <mxCell id="SHpA7wh9NQkPlfdL5Q3B-325" value="name" style="shape=partialRectangle;connectable=0;fillColor=none;top=0;left=0;bottom=0;right=0;editable=1;overflow=hidden;whiteSpace=wrap;html=1;" vertex="1" parent="SHpA7wh9NQkPlfdL5Q3B-324">
          <mxGeometry width="120" height="30" as="geometry">
            <mxRectangle width="120" height="30" as="alternateBounds" />
          </mxGeometry>
        </mxCell>
        <mxCell id="SHpA7wh9NQkPlfdL5Q3B-326" value="string" style="shape=partialRectangle;connectable=0;fillColor=none;top=0;left=0;bottom=0;right=0;align=left;spacingLeft=6;overflow=hidden;whiteSpace=wrap;html=1;" vertex="1" parent="SHpA7wh9NQkPlfdL5Q3B-324">
          <mxGeometry x="120" width="60" height="30" as="geometry">
            <mxRectangle width="60" height="30" as="alternateBounds" />
          </mxGeometry>
        </mxCell>
        <mxCell id="SHpA7wh9NQkPlfdL5Q3B-327" value="" style="shape=tableRow;horizontal=0;startSize=0;swimlaneHead=0;swimlaneBody=0;fillColor=none;collapsible=0;dropTarget=0;points=[[0,0.5],[1,0.5]];portConstraint=eastwest;top=0;left=0;right=0;bottom=0;" vertex="1" parent="SHpA7wh9NQkPlfdL5Q3B-317">
          <mxGeometry y="120" width="180" height="20" as="geometry" />
        </mxCell>
        <mxCell id="SHpA7wh9NQkPlfdL5Q3B-328" value="" style="shape=partialRectangle;connectable=0;fillColor=none;top=0;left=0;bottom=0;right=0;editable=1;overflow=hidden;whiteSpace=wrap;html=1;" vertex="1" parent="SHpA7wh9NQkPlfdL5Q3B-327">
          <mxGeometry width="120" height="20" as="geometry">
            <mxRectangle width="120" height="20" as="alternateBounds" />
          </mxGeometry>
        </mxCell>
        <mxCell id="SHpA7wh9NQkPlfdL5Q3B-329" value="" style="shape=partialRectangle;connectable=0;fillColor=none;top=0;left=0;bottom=0;right=0;align=left;spacingLeft=6;overflow=hidden;whiteSpace=wrap;html=1;" vertex="1" parent="SHpA7wh9NQkPlfdL5Q3B-327">
          <mxGeometry x="120" width="60" height="20" as="geometry">
            <mxRectangle width="60" height="20" as="alternateBounds" />
          </mxGeometry>
        </mxCell>
        <mxCell id="SHpA7wh9NQkPlfdL5Q3B-330" style="edgeStyle=orthogonalEdgeStyle;rounded=0;orthogonalLoop=1;jettySize=auto;html=1;exitX=1;exitY=0.5;exitDx=0;exitDy=0;entryX=0;entryY=0.5;entryDx=0;entryDy=0;" edge="1" parent="1">
          <mxGeometry relative="1" as="geometry">
            <mxPoint x="290" y="410" as="sourcePoint" />
            <mxPoint x="410" y="410" as="targetPoint" />
          </mxGeometry>
        </mxCell>
        <mxCell id="SHpA7wh9NQkPlfdL5Q3B-331" value="matters" style="shape=table;startSize=30;container=1;collapsible=1;childLayout=tableLayout;fixedRows=1;rowLines=0;fontStyle=1;align=center;resizeLast=1;html=1;" vertex="1" parent="1">
          <mxGeometry x="103" y="590" width="187" height="349" as="geometry" />
        </mxCell>
        <mxCell id="SHpA7wh9NQkPlfdL5Q3B-332" value="" style="shape=tableRow;horizontal=0;startSize=0;swimlaneHead=0;swimlaneBody=0;fillColor=none;collapsible=0;dropTarget=0;points=[[0,0.5],[1,0.5]];portConstraint=eastwest;top=0;left=0;right=0;bottom=1;" vertex="1" parent="SHpA7wh9NQkPlfdL5Q3B-331">
          <mxGeometry y="30" width="187" height="30" as="geometry" />
        </mxCell>
        <mxCell id="SHpA7wh9NQkPlfdL5Q3B-333" value="column" style="shape=partialRectangle;connectable=0;fillColor=none;top=0;left=0;bottom=0;right=0;fontStyle=1;overflow=hidden;whiteSpace=wrap;html=1;" vertex="1" parent="SHpA7wh9NQkPlfdL5Q3B-332">
          <mxGeometry width="130" height="30" as="geometry">
            <mxRectangle width="130" height="30" as="alternateBounds" />
          </mxGeometry>
        </mxCell>
        <mxCell id="SHpA7wh9NQkPlfdL5Q3B-334" value="type" style="shape=partialRectangle;connectable=0;fillColor=none;top=0;left=0;bottom=0;right=0;align=left;spacingLeft=6;fontStyle=5;overflow=hidden;whiteSpace=wrap;html=1;" vertex="1" parent="SHpA7wh9NQkPlfdL5Q3B-332">
          <mxGeometry x="130" width="57" height="30" as="geometry">
            <mxRectangle width="57" height="30" as="alternateBounds" />
          </mxGeometry>
        </mxCell>
        <mxCell id="SHpA7wh9NQkPlfdL5Q3B-335" value="" style="shape=tableRow;horizontal=0;startSize=0;swimlaneHead=0;swimlaneBody=0;fillColor=none;collapsible=0;dropTarget=0;points=[[0,0.5],[1,0.5]];portConstraint=eastwest;top=0;left=0;right=0;bottom=0;" vertex="1" parent="SHpA7wh9NQkPlfdL5Q3B-331">
          <mxGeometry y="60" width="187" height="30" as="geometry" />
        </mxCell>
        <mxCell id="SHpA7wh9NQkPlfdL5Q3B-336" value="id" style="shape=partialRectangle;connectable=0;fillColor=none;top=0;left=0;bottom=0;right=0;editable=1;overflow=hidden;whiteSpace=wrap;html=1;" vertex="1" parent="SHpA7wh9NQkPlfdL5Q3B-335">
          <mxGeometry width="130" height="30" as="geometry">
            <mxRectangle width="130" height="30" as="alternateBounds" />
          </mxGeometry>
        </mxCell>
        <mxCell id="SHpA7wh9NQkPlfdL5Q3B-337" value="num" style="shape=partialRectangle;connectable=0;fillColor=none;top=0;left=0;bottom=0;right=0;align=left;spacingLeft=6;overflow=hidden;whiteSpace=wrap;html=1;" vertex="1" parent="SHpA7wh9NQkPlfdL5Q3B-335">
          <mxGeometry x="130" width="57" height="30" as="geometry">
            <mxRectangle width="57" height="30" as="alternateBounds" />
          </mxGeometry>
        </mxCell>
        <mxCell id="SHpA7wh9NQkPlfdL5Q3B-338" value="" style="shape=tableRow;horizontal=0;startSize=0;swimlaneHead=0;swimlaneBody=0;fillColor=none;collapsible=0;dropTarget=0;points=[[0,0.5],[1,0.5]];portConstraint=eastwest;top=0;left=0;right=0;bottom=0;" vertex="1" parent="SHpA7wh9NQkPlfdL5Q3B-331">
          <mxGeometry y="90" width="187" height="30" as="geometry" />
        </mxCell>
        <mxCell id="SHpA7wh9NQkPlfdL5Q3B-339" value="name" style="shape=partialRectangle;connectable=0;fillColor=none;top=0;left=0;bottom=0;right=0;editable=1;overflow=hidden;whiteSpace=wrap;html=1;" vertex="1" parent="SHpA7wh9NQkPlfdL5Q3B-338">
          <mxGeometry width="130" height="30" as="geometry">
            <mxRectangle width="130" height="30" as="alternateBounds" />
          </mxGeometry>
        </mxCell>
        <mxCell id="SHpA7wh9NQkPlfdL5Q3B-340" value="string" style="shape=partialRectangle;connectable=0;fillColor=none;top=0;left=0;bottom=0;right=0;align=left;spacingLeft=6;overflow=hidden;whiteSpace=wrap;html=1;" vertex="1" parent="SHpA7wh9NQkPlfdL5Q3B-338">
          <mxGeometry x="130" width="57" height="30" as="geometry">
            <mxRectangle width="57" height="30" as="alternateBounds" />
          </mxGeometry>
        </mxCell>
        <mxCell id="SHpA7wh9NQkPlfdL5Q3B-341" value="" style="shape=tableRow;horizontal=0;startSize=0;swimlaneHead=0;swimlaneBody=0;fillColor=none;collapsible=0;dropTarget=0;points=[[0,0.5],[1,0.5]];portConstraint=eastwest;top=0;left=0;right=0;bottom=0;" vertex="1" parent="SHpA7wh9NQkPlfdL5Q3B-331">
          <mxGeometry y="120" width="187" height="30" as="geometry" />
        </mxCell>
        <mxCell id="SHpA7wh9NQkPlfdL5Q3B-342" value="name_kana" style="shape=partialRectangle;connectable=0;fillColor=none;top=0;left=0;bottom=0;right=0;editable=1;overflow=hidden;whiteSpace=wrap;html=1;" vertex="1" parent="SHpA7wh9NQkPlfdL5Q3B-341">
          <mxGeometry width="130" height="30" as="geometry">
            <mxRectangle width="130" height="30" as="alternateBounds" />
          </mxGeometry>
        </mxCell>
        <mxCell id="SHpA7wh9NQkPlfdL5Q3B-343" value="string" style="shape=partialRectangle;connectable=0;fillColor=none;top=0;left=0;bottom=0;right=0;align=left;spacingLeft=6;overflow=hidden;whiteSpace=wrap;html=1;" vertex="1" parent="SHpA7wh9NQkPlfdL5Q3B-341">
          <mxGeometry x="130" width="57" height="30" as="geometry">
            <mxRectangle width="57" height="30" as="alternateBounds" />
          </mxGeometry>
        </mxCell>
        <mxCell id="SHpA7wh9NQkPlfdL5Q3B-344" value="" style="shape=tableRow;horizontal=0;startSize=0;swimlaneHead=0;swimlaneBody=0;fillColor=none;collapsible=0;dropTarget=0;points=[[0,0.5],[1,0.5]];portConstraint=eastwest;top=0;left=0;right=0;bottom=0;" vertex="1" parent="SHpA7wh9NQkPlfdL5Q3B-331">
          <mxGeometry y="150" width="187" height="30" as="geometry" />
        </mxCell>
        <mxCell id="SHpA7wh9NQkPlfdL5Q3B-345" value="email" style="shape=partialRectangle;connectable=0;fillColor=none;top=0;left=0;bottom=0;right=0;editable=1;overflow=hidden;whiteSpace=wrap;html=1;" vertex="1" parent="SHpA7wh9NQkPlfdL5Q3B-344">
          <mxGeometry width="130" height="30" as="geometry">
            <mxRectangle width="130" height="30" as="alternateBounds" />
          </mxGeometry>
        </mxCell>
        <mxCell id="SHpA7wh9NQkPlfdL5Q3B-346" value="string" style="shape=partialRectangle;connectable=0;fillColor=none;top=0;left=0;bottom=0;right=0;align=left;spacingLeft=6;overflow=hidden;whiteSpace=wrap;html=1;" vertex="1" parent="SHpA7wh9NQkPlfdL5Q3B-344">
          <mxGeometry x="130" width="57" height="30" as="geometry">
            <mxRectangle width="57" height="30" as="alternateBounds" />
          </mxGeometry>
        </mxCell>
        <mxCell id="SHpA7wh9NQkPlfdL5Q3B-347" value="" style="shape=tableRow;horizontal=0;startSize=0;swimlaneHead=0;swimlaneBody=0;fillColor=none;collapsible=0;dropTarget=0;points=[[0,0.5],[1,0.5]];portConstraint=eastwest;top=0;left=0;right=0;bottom=0;" vertex="1" parent="SHpA7wh9NQkPlfdL5Q3B-331">
          <mxGeometry y="180" width="187" height="28" as="geometry" />
        </mxCell>
        <mxCell id="SHpA7wh9NQkPlfdL5Q3B-348" value="phone" style="shape=partialRectangle;connectable=0;fillColor=none;top=0;left=0;bottom=0;right=0;editable=1;overflow=hidden;whiteSpace=wrap;html=1;" vertex="1" parent="SHpA7wh9NQkPlfdL5Q3B-347">
          <mxGeometry width="130" height="28" as="geometry">
            <mxRectangle width="130" height="28" as="alternateBounds" />
          </mxGeometry>
        </mxCell>
        <mxCell id="SHpA7wh9NQkPlfdL5Q3B-349" value="string" style="shape=partialRectangle;connectable=0;fillColor=none;top=0;left=0;bottom=0;right=0;align=left;spacingLeft=6;overflow=hidden;whiteSpace=wrap;html=1;" vertex="1" parent="SHpA7wh9NQkPlfdL5Q3B-347">
          <mxGeometry x="130" width="57" height="28" as="geometry">
            <mxRectangle width="57" height="28" as="alternateBounds" />
          </mxGeometry>
        </mxCell>
        <mxCell id="SHpA7wh9NQkPlfdL5Q3B-350" value="" style="shape=tableRow;horizontal=0;startSize=0;swimlaneHead=0;swimlaneBody=0;fillColor=none;collapsible=0;dropTarget=0;points=[[0,0.5],[1,0.5]];portConstraint=eastwest;top=0;left=0;right=0;bottom=0;" vertex="1" parent="SHpA7wh9NQkPlfdL5Q3B-331">
          <mxGeometry y="208" width="187" height="30" as="geometry" />
        </mxCell>
        <mxCell id="SHpA7wh9NQkPlfdL5Q3B-351" value="birthday" style="shape=partialRectangle;connectable=0;fillColor=none;top=0;left=0;bottom=0;right=0;editable=1;overflow=hidden;whiteSpace=wrap;html=1;" vertex="1" parent="SHpA7wh9NQkPlfdL5Q3B-350">
          <mxGeometry width="130" height="30" as="geometry">
            <mxRectangle width="130" height="30" as="alternateBounds" />
          </mxGeometry>
        </mxCell>
        <mxCell id="SHpA7wh9NQkPlfdL5Q3B-352" value="string" style="shape=partialRectangle;connectable=0;fillColor=none;top=0;left=0;bottom=0;right=0;align=left;spacingLeft=6;overflow=hidden;whiteSpace=wrap;html=1;" vertex="1" parent="SHpA7wh9NQkPlfdL5Q3B-350">
          <mxGeometry x="130" width="57" height="30" as="geometry">
            <mxRectangle width="57" height="30" as="alternateBounds" />
          </mxGeometry>
        </mxCell>
        <mxCell id="SHpA7wh9NQkPlfdL5Q3B-353" value="" style="shape=tableRow;horizontal=0;startSize=0;swimlaneHead=0;swimlaneBody=0;fillColor=none;collapsible=0;dropTarget=0;points=[[0,0.5],[1,0.5]];portConstraint=eastwest;top=0;left=0;right=0;bottom=0;" vertex="1" parent="SHpA7wh9NQkPlfdL5Q3B-331">
          <mxGeometry y="238" width="187" height="30" as="geometry" />
        </mxCell>
        <mxCell id="SHpA7wh9NQkPlfdL5Q3B-354" value="prefecture_id" style="shape=partialRectangle;connectable=0;fillColor=none;top=0;left=0;bottom=0;right=0;editable=1;overflow=hidden;whiteSpace=wrap;html=1;" vertex="1" parent="SHpA7wh9NQkPlfdL5Q3B-353">
          <mxGeometry width="130" height="30" as="geometry">
            <mxRectangle width="130" height="30" as="alternateBounds" />
          </mxGeometry>
        </mxCell>
        <mxCell id="SHpA7wh9NQkPlfdL5Q3B-355" value="num" style="shape=partialRectangle;connectable=0;fillColor=none;top=0;left=0;bottom=0;right=0;align=left;spacingLeft=6;overflow=hidden;whiteSpace=wrap;html=1;" vertex="1" parent="SHpA7wh9NQkPlfdL5Q3B-353">
          <mxGeometry x="130" width="57" height="30" as="geometry">
            <mxRectangle width="57" height="30" as="alternateBounds" />
          </mxGeometry>
        </mxCell>
        <mxCell id="SHpA7wh9NQkPlfdL5Q3B-356" value="" style="shape=tableRow;horizontal=0;startSize=0;swimlaneHead=0;swimlaneBody=0;fillColor=none;collapsible=0;dropTarget=0;points=[[0,0.5],[1,0.5]];portConstraint=eastwest;top=0;left=0;right=0;bottom=0;" vertex="1" parent="SHpA7wh9NQkPlfdL5Q3B-331">
          <mxGeometry y="268" width="187" height="30" as="geometry" />
        </mxCell>
        <mxCell id="SHpA7wh9NQkPlfdL5Q3B-357" value="job_id" style="shape=partialRectangle;connectable=0;fillColor=none;top=0;left=0;bottom=0;right=0;editable=1;overflow=hidden;whiteSpace=wrap;html=1;" vertex="1" parent="SHpA7wh9NQkPlfdL5Q3B-356">
          <mxGeometry width="130" height="30" as="geometry">
            <mxRectangle width="130" height="30" as="alternateBounds" />
          </mxGeometry>
        </mxCell>
        <mxCell id="SHpA7wh9NQkPlfdL5Q3B-358" value="num" style="shape=partialRectangle;connectable=0;fillColor=none;top=0;left=0;bottom=0;right=0;align=left;spacingLeft=6;overflow=hidden;whiteSpace=wrap;html=1;" vertex="1" parent="SHpA7wh9NQkPlfdL5Q3B-356">
          <mxGeometry x="130" width="57" height="30" as="geometry">
            <mxRectangle width="57" height="30" as="alternateBounds" />
          </mxGeometry>
        </mxCell>
        <mxCell id="SHpA7wh9NQkPlfdL5Q3B-359" value="" style="shape=tableRow;horizontal=0;startSize=0;swimlaneHead=0;swimlaneBody=0;fillColor=none;collapsible=0;dropTarget=0;points=[[0,0.5],[1,0.5]];portConstraint=eastwest;top=0;left=0;right=0;bottom=0;" vertex="1" parent="SHpA7wh9NQkPlfdL5Q3B-331">
          <mxGeometry y="298" width="187" height="30" as="geometry" />
        </mxCell>
        <mxCell id="SHpA7wh9NQkPlfdL5Q3B-360" value="status" style="shape=partialRectangle;connectable=0;fillColor=none;top=0;left=0;bottom=0;right=0;editable=1;overflow=hidden;whiteSpace=wrap;html=1;" vertex="1" parent="SHpA7wh9NQkPlfdL5Q3B-359">
          <mxGeometry width="130" height="30" as="geometry">
            <mxRectangle width="130" height="30" as="alternateBounds" />
          </mxGeometry>
        </mxCell>
        <mxCell id="SHpA7wh9NQkPlfdL5Q3B-361" value="boolean" style="shape=partialRectangle;connectable=0;fillColor=none;top=0;left=0;bottom=0;right=0;align=left;spacingLeft=6;overflow=hidden;whiteSpace=wrap;html=1;" vertex="1" parent="SHpA7wh9NQkPlfdL5Q3B-359">
          <mxGeometry x="130" width="57" height="30" as="geometry">
            <mxRectangle width="57" height="30" as="alternateBounds" />
          </mxGeometry>
        </mxCell>
        <mxCell id="SHpA7wh9NQkPlfdL5Q3B-362" value="" style="shape=tableRow;horizontal=0;startSize=0;swimlaneHead=0;swimlaneBody=0;fillColor=none;collapsible=0;dropTarget=0;points=[[0,0.5],[1,0.5]];portConstraint=eastwest;top=0;left=0;right=0;bottom=0;" vertex="1" parent="SHpA7wh9NQkPlfdL5Q3B-331">
          <mxGeometry y="328" width="187" height="20" as="geometry" />
        </mxCell>
        <mxCell id="SHpA7wh9NQkPlfdL5Q3B-363" value="" style="shape=partialRectangle;connectable=0;fillColor=none;top=0;left=0;bottom=0;right=0;editable=1;overflow=hidden;whiteSpace=wrap;html=1;" vertex="1" parent="SHpA7wh9NQkPlfdL5Q3B-362">
          <mxGeometry width="130" height="20" as="geometry">
            <mxRectangle width="130" height="20" as="alternateBounds" />
          </mxGeometry>
        </mxCell>
        <mxCell id="SHpA7wh9NQkPlfdL5Q3B-364" value="" style="shape=partialRectangle;connectable=0;fillColor=none;top=0;left=0;bottom=0;right=0;align=left;spacingLeft=6;overflow=hidden;whiteSpace=wrap;html=1;" vertex="1" parent="SHpA7wh9NQkPlfdL5Q3B-362">
          <mxGeometry x="130" width="57" height="20" as="geometry">
            <mxRectangle width="57" height="20" as="alternateBounds" />
          </mxGeometry>
        </mxCell>
      </root>
    </mxGraphModel>
  </diagram>
</mxfile>
